<?xml version="1.0" encoding="UTF-8"?>
<svg width="24" height="24" viewBox="0 0 24 24" fill="none" xmlns="http://www.w3.org/2000/svg">
  <path d="M12 0C5.375 0 0 5.375 0 12s5.375 12 12 12 12-5.375 12-12S18.625 0 12 0zm0 2.25c5.376 0 9.75 4.374 9.75 9.75s-4.374 9.75-9.75 9.75S2.25 17.376 2.25 12 6.624 2.25 12 2.25z" fill="#326CE5"/>
  <path d="M12 3.75c-4.549 0-8.25 3.701-8.25 8.25S7.451 20.25 12 20.25s8.25-3.701 8.25-8.25S16.549 3.75 12 3.75zm0 1.5c3.722 0 6.75 3.028 6.75 6.75S15.722 18.75 12 18.75 5.25 15.722 5.25 12 8.278 5.25 12 5.25z" fill="#326CE5"/>
  <path d="M12 6.75c-2.895 0-5.25 2.355-5.25 5.25S9.105 17.25 12 17.25s5.25-2.355 5.25-5.25S14.895 6.75 12 6.75zm0 1.5c2.068 0 3.75 1.682 3.75 3.75s-1.682 3.75-3.75 3.75-3.75-1.682-3.75-3.75S9.932 8.25 12 8.25z" fill="#326CE5"/>
</svg>
