<?xml version="1.0" encoding="UTF-8"?>
<svg width="24" height="24" viewBox="0 0 24 24" fill="none" xmlns="http://www.w3.org/2000/svg">
  <path d="M12 0C5.878 0 6.232 2.668 6.232 2.668l.008 2.766h5.847v.825H3.91S0 5.93 0 12.207c0 6.277 3.414 6.055 3.414 6.055h2.037v-2.916s-.11-3.415 3.36-3.415h5.787s3.247.052 3.247-3.136V3.67S18.347 0 12 0zM8.782 1.875a1.033 1.033 0 1 1 0 2.068 1.033 1.033 0 0 1 0-2.068z" fill="#3776AB"/>
  <path d="M12 24c6.122 0 5.768-2.668 5.768-2.668l-.008-2.766h-5.847v-.825h8.177S24 18.07 24 11.793c0-6.277-3.414-6.055-3.414-6.055h-2.037v2.916s.11 3.415-3.36 3.415H9.402s-3.247-.052-3.247 3.136v5.125S5.653 24 12 24zm3.218-1.875a1.033 1.033 0 1 1 0-2.068 1.033 1.033 0 0 1 0 2.068z" fill="#3776AB"/>
</svg>
